<svg xmlns="http://www.w3.org/2000/svg" viewBox="0 0 100 100">
  <defs>
    <linearGradient id="grad" x1="0%" y1="0%" x2="100%" y2="100%">
      <stop offset="0%" style="stop-color:#6366f1;stop-opacity:1" />
      <stop offset="100%" style="stop-color:#8b5cf6;stop-opacity:1" />
    </linearGradient>
  </defs>
  <!-- Background with rounded corners -->
  <rect width="100" height="100" rx="20" fill="url(#grad)"/>
  
  <!-- Terminal/Admin window icon -->
  <rect x="20" y="25" width="60" height="50" rx="4" fill="none" stroke="white" stroke-width="3" opacity="0.95"/>
  
  <!-- Terminal prompt lines -->
  <line x1="28" y1="38" x2="45" y2="38" stroke="white" stroke-width="2.5" opacity="0.9"/>
  <line x1="28" y1="50" x2="55" y2="50" stroke="white" stroke-width="2.5" opacity="0.9"/>
  <line x1="28" y1="62" x2="48" y2="62" stroke="white" stroke-width="2.5" opacity="0.9"/>
  
  <!-- Cursor -->
  <rect x="48" y="59" width="3" height="6" fill="white" opacity="0.9"/>
  
  <!-- Cloud storage icon (top right) -->
  <path d="M65 20 Q70 20 70 25 Q70 30 65 30 Q65 35 60 35 Q55 35 55 30 Q50 30 50 25 Q50 20 55 20 Q55 15 60 15 Q65 15 65 20 Z" fill="white" opacity="0.85"/>
</svg>
